<svg xmlns="http://www.w3.org/2000/svg" width="102" height="102" viewBox="0 0 102 102">
  <g fill="none" stroke="#EEE" transform="translate(1 1)">
    <path fill="#76A306" stroke-width=".6" d="M73.2490234,43.9695313 C72.7701172,42.7578125 71.3996094,42.1644531 70.1875,42.6429688 C68.9757813,43.1220703 68.3820313,44.4927734 68.8609375,45.7044922 C70.0599609,48.7367188 70.6675781,51.9414063 70.6675781,55.2298828 C70.6675781,69.5150391 59.0458984,81.1371094 44.7603516,81.1371094 C30.4738281,81.1371094 18.8505859,69.5150391 18.8505859,55.2298828 C18.8505859,40.9447266 30.4738281,29.3226563 44.7603516,29.3226563 C48.0603516,29.3226563 51.2705078,29.9341797 54.3017578,31.1402344 C55.5121094,31.6224609 56.8841797,31.0308594 57.3660156,29.8205078 C57.8478516,28.6097656 57.2568359,27.2378906 56.0462891,26.75625 C52.4576172,25.328125 48.6603516,24.6041016 44.7605469,24.6041016 C27.8722656,24.6041016 14.1322266,38.3425781 14.1322266,55.2296875 C14.1322266,72.1167969 27.8716797,85.8554688 44.7603516,85.8554688 C61.6472656,85.8554688 75.3859375,72.1169922 75.3859375,55.2298828 C75.3859375,51.3449219 74.6667969,47.5566406 73.2490234,43.9695313 Z"/>
    <path fill="#76A306" stroke-width=".6" d="M87.7941406,42.8919922 C87.4357422,41.6392578 86.1304688,40.9152344 84.8769531,41.2728516 C83.6242188,41.6314453 82.8994141,42.9375 83.2578125,44.1900391 C84.2804688,47.7646484 84.7990234,51.4791016 84.7990234,55.2294922 C84.7990234,77.3083984 66.8376953,95.2712891 44.7601563,95.2712891 C22.68125,95.2712891 4.71855469,77.3085938 4.71855469,55.2294922 C4.71855469,33.1503906 22.6810547,15.1880859 44.7601563,15.1880859 C48.5191406,15.1880859 52.2398438,15.7089844 55.8183594,16.7365234 C57.0708984,17.0958984 58.3775391,16.3724609 58.7369141,15.1199219 C59.0964844,13.8673828 58.3728516,12.5607422 57.1203125,12.2013672 C53.1185547,11.0521484 48.9597656,10.4693359 44.7601563,10.4693359 C20.0792969,10.4695312 0,30.5488281 0,55.2296875 C0,79.9105469 20.0792969,99.9900391 44.7601563,99.9900391 C69.4394531,99.9900391 89.5175781,79.9107422 89.5175781,55.2296875 C89.5175781,51.0398438 88.9376953,46.8888672 87.7941406,42.8919922 Z"/>
    <path fill="#76A306" stroke-width=".6" d="M61.1871094,53.7892578 C61.0714844,52.4914063 59.9248047,51.5382813 58.6275391,51.6490234 C57.3296875,51.7648437 56.3712891,52.9109375 56.4873047,54.2087891 C56.5171875,54.5447266 56.5324219,54.8882812 56.5324219,55.2298828 C56.5324219,61.7214844 51.2511719,67.0023437 44.7599609,67.0023437 C38.2669922,67.0023437 32.9845703,61.7210937 32.9845703,55.2298828 C32.9849609,48.7367187 38.2671875,43.4544922 44.7601562,43.4544922 C45.1228516,43.4544922 45.4779297,43.4703125 45.8160156,43.5013672 C47.1146484,43.6205078 48.2623047,42.6662109 48.3820312,41.3685547 C48.5015625,40.0710938 47.5466797,38.9224609 46.2492187,38.8025391 C45.7679688,38.7582031 45.2669922,38.7357422 44.7603516,38.7357422 C35.665625,38.7357422 28.2664062,46.1345703 28.2664062,55.2294922 C28.2664062,64.3228516 35.665625,71.7205078 44.7603516,71.7205078 C53.8535156,71.7205078 61.2513672,64.3228516 61.2513672,55.2294922 C61.2511719,54.7488281 61.2296875,54.2638672 61.1871094,53.7892578 Z"/>
    <path fill="#447EAF" stroke-width=".8" d="M99.6384766,15.871875 C98.9054688,14.1019531 97.19375,12.9582031 95.2779297,12.9582031 L87.0515625,12.9582031 L87.0515625,4.73203125 C87.0515625,2.81601562 85.9078125,1.10449219 84.1378906,0.371484375 C82.36875,-0.361328125 80.3505859,0.0404296875 78.9962891,1.39472656 L65.2509766,15.1402344 C63.9146484,16.4763672 63.1789062,18.2533203 63.1789062,20.14375 L63.1789062,33.4943359 L44.0050781,52.6681641 C43.0837891,53.5894531 43.0837891,55.0833984 44.0050781,56.0048828 C44.465625,56.4654297 45.0695312,56.6958984 45.6732422,56.6958984 C46.2769531,56.6958984 46.8808594,56.4654297 47.3414062,56.0048828 L66.5154297,36.8308594 L79.8660156,36.8308594 C81.7564453,36.8308594 83.5335937,36.0949219 84.8695312,34.7589844 L98.6150391,21.0130859 C99.9697266,19.6585937 100.371289,17.6408203 99.6384766,15.871875 Z M67.8974609,20.1435547 C67.8976563,19.5136719 68.1427734,18.9214844 68.5876953,18.4767578 L82.3330078,4.73339844 L82.3330078,14.3404297 L67.8972656,28.7761719 L67.8972656,20.1435547 L67.8974609,20.1435547 Z M81.5332031,31.4222656 C81.0949219,31.8605469 80.4871094,32.1123047 79.8662109,32.1123047 L71.2341797,32.1123047 L85.6695312,17.6769531 L95.2773438,17.678125 L81.5332031,31.4222656 Z"/>
  </g>
</svg>
