<svg xmlns="http://www.w3.org/2000/svg" width="94" height="94" viewBox="0 0 94 94">
  <g fill="none">
    <path fill="#76A306" d="M92.3652812,34.8442578 C89.1053906,22.678418 81.3435977,12.5339453 70.5099141,6.27945703 C63.4114453,2.18091016 55.3261602,0.0143203125 47.1290664,0.0143203125 C30.2922344,0.0143203125 14.6393984,9.00967969 6.27927344,23.4897187 C0.0246015625,34.3234023 -1.62498828,46.9897188 1.63490234,59.155375 C4.89479297,71.3212148 12.6560352,81.4656875 23.4899023,87.7209102 C24.9975742,88.5909609 26.5494922,89.3736211 28.1381289,90.0674219 L27.4087109,90.0674219 C26.3269766,90.0674219 25.449582,90.9446328 25.449582,92.0265508 C25.449582,93.1082852 26.3271602,93.9856797 27.4087109,93.9856797 L66.5923906,93.9856797 C67.674125,93.9856797 68.5515195,93.1081016 68.5515195,92.0265508 C68.5515195,90.9444492 67.6739414,90.0674219 66.5923906,90.0674219 L65.7179336,90.0674219 C74.8364844,86.1100586 82.6304063,79.3268203 87.7209102,70.5100977 C93.975582,59.6758633 95.6251719,47.0095469 92.3652812,34.8442578 Z M84.3273633,68.5506016 C76.6652617,81.8225937 62.3126367,90.0666875 46.8709336,90.0666875 C39.3606641,90.0666875 31.9526563,88.0822227 25.4488477,84.3271797 C4.86651953,72.443707 -2.21010156,46.030625 9.67263672,25.4488477 C17.3352891,12.1772227 31.6875469,3.93257812 47.12925,3.93257812 C54.6395195,3.93257812 62.0471602,5.91741016 68.5509688,9.67282031 C78.47825,15.40425 85.5917734,24.7038242 88.5804961,35.8580625 C91.5692188,47.0124844 90.0591602,58.6231367 84.3273633,68.5506016 Z"/>
    <path fill="#76A306" d="M37.8730039 81.0634336C25.7420469 77.8127227 16.186543 68.2575859 12.935832 56.1271797 12.655668 55.0817969 11.5827461 54.4618008 10.5362617 54.7415977 9.49124609 55.0217617 8.87088281 56.0961523 9.15104687 57.141168 12.7628867 70.6197031 23.3801133 81.2363789 36.8590156 84.8484023 37.0288398 84.8939336 37.199582 84.9157812 37.3672031 84.9157812 38.2322969 84.9157812 39.0241367 84.3383789 39.2585859 83.4628203 39.53875 82.4176211 38.9183867 81.3434141 37.8730039 81.0634336zM57.141168 9.15141406C56.0961523 8.87161719 55.0217617 9.49161328 54.7415977 10.5366289 54.4614336 11.5816445 55.0817969 12.6560352 56.1271797 12.9361992 68.2581367 16.1869102 77.813457 25.7420469 81.0639844 37.8724531 81.2984336 38.7476445 82.0902734 39.3250469 82.9553672 39.3250469 83.1228047 39.3250469 83.2937305 39.3033828 83.4635547 39.257668 84.5085703 38.9775039 85.1289336 37.9031133 84.8487695 36.8580977 81.2369297 23.3799297 70.6202539 12.7630703 57.141168 9.15141406zM45.8288555 82.2463281C45.3375586 82.2294375 44.8444258 82.2026328 44.3635937 82.1664648 43.2818594 82.0838477 42.3435117 82.8931289 42.2616289 83.9719258 42.1801133 85.0510898 42.988293 85.9920078 44.067457 86.0738906 44.6026328 86.1144648 45.1510273 86.144207 45.696668 86.1625664 45.71925 86.1633008 45.7414648 86.163668 45.7640469 86.163668 46.8154883 86.163668 47.6853555 85.3290508 47.7207891 84.2702656 47.7575078 83.1885312 46.9102227 82.2824961 45.8288555 82.2463281zM48.1702266 11.7540391C48.6584023 11.7705625 49.1530039 11.7973672 49.6391602 11.8335352 49.6885469 11.8370234 49.7379336 11.8388594 49.7864023 11.8388594 50.8024102 11.8388594 51.6618125 11.0543633 51.7383711 10.0245859 51.8182344 8.94542188 51.0085859 8.00560547 49.9296055 7.92574219 49.3907578 7.88553516 48.8440156 7.85616016 48.3036992 7.83780078 47.217375 7.79796094 46.3159297 8.64744922 46.2790273 9.72881641 46.242125 10.8105508 47.089043 11.7171367 48.1702266 11.7540391z"/>
    <path fill="#447EAF" d="M66.8093984,35.8797266 L56.3533672,35.8797266 C57.1933086,31.9054727 57.7516172,27.6852031 55.4886406,24.5685156 C53.9703203,22.4771992 51.3858711,21.2447344 47.8068945,20.9061875 C47.6813164,20.8942539 47.5539023,20.8881953 47.427957,20.8881953 C45.3724414,20.8881953 43.6106758,22.4911523 43.4180859,24.5360195 C42.7499883,31.5817969 40.843918,35.5292461 38.8893789,37.2899102 C38.6521758,36.4756719 37.9009102,35.8799102 37.0097461,35.8799102 L24.5589688,35.8799102 C23.4772344,35.8799102 22.5998398,36.7571211 22.5998398,37.8390391 L22.5998398,63.3152422 C22.5998398,64.3973437 23.477418,65.2743711 24.5589688,65.2743711 L37.0097461,65.2743711 C37.9247773,65.2743711 38.6910977,64.6461133 38.9066367,63.7977266 C40.3764883,64.7524141 42.2166484,65.2743711 44.3399102,65.2743711 L65.0423086,65.2743711 C67.1396836,65.2743711 68.8439844,63.6572773 69.0947734,61.429 L71.3583008,41.307125 C71.5369375,39.7260156 71.1444141,38.3061016 70.2528828,37.3084531 C69.6699727,36.6565117 68.6001719,35.8797266 66.8093984,35.8797266 Z M35.0506172,40.3371992 L35.0506172,55.8855703 L35.0506172,61.3559297 L26.5180977,61.3559297 L26.5180977,47.6343164 L30.7842656,47.6343164 C31.8663672,47.6343164 32.7433945,46.7567383 32.7433945,45.6751875 C32.7433945,44.5930859 31.8661836,43.7160586 30.7842656,43.7160586 L26.5180977,43.7160586 L26.5180977,39.7979844 L35.0506172,39.7979844 L35.0506172,40.3371992 Z M67.4646445,40.8683359 L65.20075,60.9909453 C65.1750469,61.2175 65.0744375,61.3403242 65.0511211,61.3555625 C65.0511211,61.3555625 65.0483672,61.3559297 65.0423086,61.3559297 L44.3399102,61.3559297 C39.6665313,61.3559297 38.9690586,57.9286016 38.9690586,55.8855703 L38.9690586,41.8120078 C40.2461367,41.2869297 41.8274297,40.2365898 43.2952617,38.1469258 C45.4181563,35.1242383 46.7719766,30.6695195 47.3189023,24.9048594 C47.3242266,24.8494141 47.3736133,24.8049844 47.4378711,24.8068203 C49.8475391,25.0352109 51.489418,25.7293789 52.317793,26.8704141 C53.8812773,29.0239688 52.9565156,33.1520742 52.140625,36.7943906 L52.0021953,37.4131016 C51.8733125,37.993625 52.0146797,38.6009531 52.386457,39.0643438 C52.7582344,39.5281016 53.3203984,39.7978008 53.914875,39.7978008 L66.8093984,39.7978008 C67.0642266,39.7978008 67.2636094,39.8440664 67.3306211,39.9186055 C67.4334336,40.0346367 67.5195391,40.3803437 67.4646445,40.8683359 Z"/>
  </g>
</svg>
