<svg xmlns="http://www.w3.org/2000/svg" width="80" height="96" viewBox="0 0 80 96">
  <g fill="none">
    <path fill="#76A306" d="M77.7570093,16.946729 C71.5342056,16.946729 66.8115888,13.3048598 61.8108411,9.44971963 C56.0659813,5.02037383 49.5547664,0 39.875514,0 C30.1962617,0 23.6850467,5.02037383 17.9398131,9.44971963 C12.9394393,13.3048598 8.21663551,16.946729 1.99383178,16.946729 C0.893084112,16.946729 0,17.8394393 0,18.9405607 C0,42.22 2.89925234,57.7209346 9.40074766,69.2011215 C15.8564486,80.6007477 25.4663551,87.6902804 38.8785047,95.4338318 C39.1869159,95.6119626 39.531028,95.7009346 39.8753271,95.7009346 C40.2196262,95.7009346 40.5637383,95.6117757 40.8721495,95.4338318 C54.284486,87.6902804 63.8942056,80.6009346 70.3502804,69.2011215 C76.8514019,57.7209346 79.7506542,42.22 79.7506542,18.9405607 C79.7508411,17.8394393 78.857757,16.946729 77.7570093,16.946729 Z M39.875514,91.4018692 C15.8257944,77.3781308 4.30897196,65.2968224 3.99439252,20.8342056 C10.5633645,20.1723364 15.5439252,16.3321495 20.3749533,12.6074766 C25.871215,8.36990654 31.5549533,3.98747664 39.875514,3.98747664 C48.1958879,3.98747664 53.8794393,8.36953271 59.3760748,12.6074766 C64.206729,16.3323364 69.1876636,20.1721495 75.7566355,20.8342056 C75.4420561,65.2968224 63.9252336,77.3781308 39.875514,91.4018692 Z"/>
    <path fill="#76A306" d="M16.4429907 22.7704673C15.9297196 21.7960748 14.7241121 21.422243 13.7497196 21.9353271 13.5020561 22.0657944 13.2508411 22.1938318 12.9988785 22.3181308 12.011028 22.804486 11.604486 23.9996262 12.0906542 24.9876636 12.4375701 25.6925234 13.1452336 26.1009346 13.8809346 26.1009346 14.1764486 26.1009346 14.4770093 26.0351402 14.7601869 25.8957009 15.0448598 25.755514 15.3280374 25.611028 15.6074766 25.4639252 16.5820561 24.9504673 16.9558879 23.7448598 16.4429907 22.7704673zM69.0811215 38.4048598C69.142243 38.4102804 69.2033645 38.4130841 69.2637383 38.4130841 70.2831776 38.4130841 71.153271 37.6351402 71.2469159 36.5996262 71.2702804 36.3450467 71.2923364 36.0893458 71.3138318 35.8347664 71.4069159 34.7373832 70.5927103 33.7727103 69.4953271 33.6796262 68.3996262 33.5852336 67.433271 34.4007477 67.3405607 35.4981308 67.3196262 35.744486 67.2981308 35.9917757 67.275514 36.2385047 67.1762617 37.3353271 67.984486 38.3052336 69.0811215 38.4048598zM20.3837383 22.08C20.7878505 22.08 21.1960748 21.9573832 21.548972 21.702243 22.7039252 20.8684112 23.828972 20.0121495 24.9166355 19.1835514 30.0057944 15.308785 34.4007477 11.962243 40 11.962243 41.1011215 11.962243 41.9938318 11.0695327 41.9938318 9.96841121 41.9938318 8.86766355 41.1011215 7.97457944 40 7.97457944 33.0553271 7.97457944 27.9285981 11.8779439 22.5009346 16.011028 21.4328972 16.824486 20.3285981 17.6652336 19.2147664 18.4693458 18.3216822 19.1142056 18.1209346 20.3601869 18.7654206 21.2528972 19.1551402 21.7930841 19.7650467 22.08 20.3837383 22.08zM40 82.1100935C34.8975701 78.9641121 28.7347664 74.7396262 24.1138318 69.2917757 23.4016822 68.4517757 22.1433645 68.348785 21.3037383 69.0605607 20.4637383 69.7727103 20.3603738 71.031028 21.0725234 71.871028 26.3813084 78.1306542 33.4239252 82.791215 38.9659813 86.1523364 38.9760748 86.1581308 38.9869159 86.1624299 38.9970093 86.1682243 39.0448598 86.1958879 39.0938318 86.22 39.1437383 86.2437383 39.1757009 86.2588785 39.2074766 86.2757009 39.2398131 86.288972 39.2846729 86.3072897 39.3300935 86.3216822 39.3762617 86.3368224 39.4147664 86.3495327 39.4527103 86.3641121 39.4915888 86.3743925 39.533271 86.3854206 39.5757009 86.3919626 39.617757 86.4001869 39.6601869 86.408785 39.7026168 86.4192523 39.7456075 86.4246729 39.8059813 86.4325234 39.8665421 86.4343925 39.9278505 86.4368224 39.951215 86.4375701 39.9745794 86.4414953 39.9979439 86.4414953 39.9986916 86.4414953 39.9994393 86.4414953 40 86.4414953 40.0007477 86.4414953 40.0016822 86.4414953 40.0020561 86.4414953 40.0254206 86.4414953 40.048785 86.4375701 40.0721495 86.4368224 40.133271 86.4343925 40.1943925 86.4327103 40.2547664 86.4246729 40.2971963 86.4192523 40.3388785 86.408785 40.3809346 86.4005607 40.4237383 86.3923364 40.466729 86.3857944 40.508785 86.3743925 40.5472897 86.3642991 40.5852336 86.3499065 40.6231776 86.3373832 40.668972 86.322243 40.7151402 86.3078505 40.7603738 86.2891589 40.7927103 86.2760748 40.8241121 86.2592523 40.8560748 86.2439252 40.9059813 86.2201869 40.9553271 86.1960748 41.0028037 86.1684112 41.0134579 86.1626168 41.0237383 86.1583178 41.0338318 86.1525234 46.5758879 82.7915888 53.6183178 78.131215 58.9272897 71.8708411 64.9811215 64.7304673 68.7970093 55.0678505 70.5925234 42.3304673 70.7461682 41.24 69.9869159 40.2319626 68.8966355 40.0781308 67.8050467 39.9246729 66.797757 40.6837383 66.6439252 41.7740187 64.9566355 53.7424299 61.4379439 62.7439252 55.8859813 69.2923364 51.2656075 74.7396262 45.1033645 78.9641121 40 82.1100935z"/>
    <path fill="#447EAF" d="M52.8676636,24.9429907 L32.0685981,45.7418692 L27.133271,40.8059813 C25.9125234,39.5856075 24.2852336,38.9134579 22.5508411,38.9134579 C20.8160748,38.9134579 19.188785,39.5856075 17.9674766,40.8063551 C15.4416822,43.3336449 15.4416822,47.4450467 17.9682243,49.9715888 L27.5003738,59.5024299 L27.5829907,59.5837383 C27.5951402,59.595514 27.6074766,59.6071028 27.6196262,59.6188785 L27.7033645,59.6968224 C27.7181308,59.7104673 27.7328972,59.7241121 27.7482243,59.7371963 L27.8340187,59.8123364 C27.8471028,59.8241121 27.8605607,59.8353271 27.8740187,59.8465421 L27.9609346,59.9185047 C27.9706542,59.9271028 27.9809346,59.9347664 27.9908411,59.9429907 L28.0792523,60.0138318 C28.095514,60.026729 28.1119626,60.0396262 28.128785,60.0519626 L28.2194393,60.1201869 C28.2321495,60.1295327 28.2446729,60.1388785 28.2575701,60.1478505 L28.3485981,60.2128972 C28.362243,60.2226168 28.3758879,60.2319626 28.3895327,60.2411215 L28.482243,60.3039252 C28.4970093,60.3136449 28.5117757,60.3235514 28.526729,60.3330841 L28.6205607,60.3930841 C28.633271,60.4009346 28.6457944,60.408972 28.6586916,60.4164486 L28.7538318,60.4740187 C28.7665421,60.4818692 28.7790654,60.4895327 28.7919626,60.4970093 L28.8876636,60.5517757 C28.9063551,60.5628037 28.9252336,60.573271 28.9441121,60.5833645 L29.0414953,60.6351402 C29.0515888,60.6405607 29.0618692,60.6461682 29.0721495,60.651028 L29.1702804,60.7013084 C29.1874766,60.7102804 29.2050467,60.7188785 29.2224299,60.7274766 L29.3216822,60.7745794 C29.3357009,60.7811215 29.3497196,60.7872897 29.3637383,60.7942056 L29.4143925,60.8168224 C29.4499065,60.8340187 29.4859813,60.8499065 29.5229907,60.8650467 L29.6242991,60.9063551 C29.6336449,60.9102804 29.6426168,60.9136449 29.6519626,60.9173832 L29.7536449,60.9570093 C29.768785,60.9631776 29.7842991,60.9691589 29.7998131,60.9749533 L29.9031776,61.0125234 C29.9194393,61.0183178 29.9362617,61.0242991 29.9530841,61.0297196 L30.0029907,61.0465421 C30.0368224,61.0590654 30.071215,61.0702804 30.1063551,61.0807477 L30.2100935,61.1123364 C30.2248598,61.1164486 30.2396262,61.1213084 30.2545794,61.1250467 L30.3592523,61.1543925 C30.3736449,61.1583178 30.3882243,61.162243 30.4029907,61.1661682 L30.5084112,61.1930841 C30.5224299,61.1966355 30.5370093,61.2 30.551215,61.2037383 L30.6566355,61.2278505 C30.6714019,61.2314019 30.6865421,61.2347664 30.7018692,61.2379439 L30.8072897,61.2596262 C30.8276636,61.2639252 30.8478505,61.2674766 30.8680374,61.2714019 L30.9201869,61.2803738 C30.951215,61.2865421 30.9828037,61.2925234 31.0149533,61.2971963 L31.1213084,61.3134579 C31.1371963,61.3162617 31.153271,61.3181308 31.1691589,61.3203738 L31.2762617,61.3340187 C31.2914019,61.3360748 31.3069159,61.3379439 31.3220561,61.3394393 L31.3727103,61.3448598 C31.4061682,61.3491589 31.4396262,61.3530841 31.4736449,61.3558879 L31.5814953,61.3648598 C31.6018692,61.3665421 31.6220561,61.3680374 31.642243,61.368785 L31.6928972,61.3715888 C31.7259813,61.3743925 31.7594393,61.3762617 31.7928972,61.3770093 L31.9007477,61.3805607 C31.9117757,61.3809346 31.9220561,61.3809346 31.9330841,61.3813084 L32.0401869,61.3828037 C32.0499065,61.3828037 32.0592523,61.3828037 32.0691589,61.3828037 C32.0788785,61.3828037 32.0882243,61.3828037 32.0981308,61.3828037 L32.2059813,61.3813084 C32.2170093,61.3809346 32.2272897,61.3809346 32.2383178,61.3805607 L32.3465421,61.3770093 C32.38,61.3762617 32.4134579,61.3742056 32.4465421,61.3715888 L32.4971963,61.368785 C32.5179439,61.3676636 32.5385047,61.3663551 32.5592523,61.3646729 L32.6663551,61.3557009 C32.6998131,61.3528972 32.7328972,61.3495327 32.7659813,61.3450467 L32.8166355,61.3396262 C32.8314019,61.3381308 32.8461682,61.3364486 32.8607477,61.3345794 L32.9685981,61.3205607 C32.9854206,61.3185047 33.0020561,61.3162617 33.0185047,61.3136449 L33.1248598,61.2973832 C33.1575701,61.2923364 33.1902804,61.2863551 33.222243,61.2798131 L33.273271,61.2708411 C33.293271,61.2676636 33.3128972,61.2639252 33.3325234,61.2594393 L33.4375701,61.237757 C33.451215,61.2349533 33.4648598,61.2323364 33.4785047,61.2291589 L33.5848598,61.2046729 C33.6016822,61.2007477 33.6183178,61.1968224 33.6351402,61.1925234 L33.7398131,61.1656075 C33.7538318,61.1620561 33.7674766,61.1583178 33.7811215,61.1542056 L33.8854206,61.1250467 C33.8998131,61.1211215 33.9145794,61.1168224 33.9285981,61.1125234 L34.0325234,61.0809346 C34.0652336,61.0708411 34.0979439,61.0601869 34.1299065,61.0485981 L34.1813084,61.0317757 C34.1996262,61.0256075 34.2179439,61.0192523 34.2360748,61.0127103 L34.3394393,60.9751402 C34.3549533,60.9693458 34.3704673,60.9633645 34.3856075,60.9571963 L34.4872897,60.9175701 C34.4986916,60.913271 34.5099065,60.9085981 34.5211215,60.9039252 L34.6216822,60.8626168 C34.6540187,60.8495327 34.6857944,60.8349533 34.7171963,60.8201869 L34.768972,60.7971963 C34.7857944,60.7899065 34.8024299,60.7820561 34.8192523,60.7742056 L34.9181308,60.7271028 C34.931215,60.7209346 34.9446729,60.7142056 34.957757,60.7074766 L35.0558879,60.6579439 C35.0874766,60.6420561 35.1188785,60.6252336 35.1493458,60.6076636 L35.2003738,60.5803738 C35.2147664,60.5725234 35.2293458,60.564486 35.2431776,60.5562617 L35.3396262,60.5014953 C35.3551402,60.4925234 35.3702804,60.4835514 35.3854206,60.4742056 L35.4805607,60.4166355 C35.4953271,60.4076636 35.5100935,60.3983178 35.5250467,60.388972 L35.6185047,60.328972 C35.6291589,60.3224299 35.6394393,60.3153271 35.6495327,60.3082243 L35.7429907,60.2457944 C35.7588785,60.2347664 35.7749533,60.2241121 35.7904673,60.2127103 L35.8814953,60.1476636 C35.8970093,60.1366355 35.9125234,60.1256075 35.9276636,60.1138318 L36.0175701,60.0456075 C36.0285981,60.0370093 36.0392523,60.028785 36.0502804,60.0203738 L36.1386916,59.9502804 C36.1620561,59.9319626 36.1848598,59.9127103 36.2076636,59.8934579 L36.2579439,59.8517757 C36.275514,59.8373832 36.2930841,59.8226168 36.3097196,59.8076636 L36.3951402,59.7321495 C36.4065421,59.7224299 36.4171963,59.7125234 36.4282243,59.7026168 L36.5123364,59.6246729 C36.5248598,59.613271 36.5368224,59.6016822 36.548972,59.5899065 L36.6315888,59.5097196 C36.6499065,59.4921495 36.6674766,59.4742056 36.6846729,59.4562617 L62.0342056,34.1071028 C64.5603738,31.5798131 64.5596262,27.4684112 62.0327103,24.9426168 C60.8123364,23.722243 59.1850467,23.0500935 57.4506542,23.0500935 C55.7158879,23.0502804 54.0884112,23.7224299 52.8676636,24.9429907 Z M59.2134579,31.2880374 L33.8314019,56.6693458 C33.8272897,56.6740187 33.8224299,56.6783178 33.8183178,56.6824299 L33.6328972,56.8474766 C33.6308411,56.8491589 33.628785,56.8508411 33.6263551,56.8528972 L33.3893458,57.0207477 L33.0525234,57.195514 C33.0517757,57.1958879 33.0504673,57.1962617 33.0497196,57.1966355 L32.8265421,57.2783178 C32.8241121,57.2790654 32.8218692,57.28 32.8196262,57.2807477 L32.4753271,57.3613084 C32.4714019,57.3620561 32.4671028,57.3628037 32.4628037,57.3637383 L32.2902804,57.3842991 C32.2861682,57.3850467 32.2816822,57.3854206 32.277757,57.3859813 L32.18,57.3917757 C32.1758879,57.3917757 32.1717757,57.3921495 32.1674766,57.3925234 L32.0685981,57.3945794 L32.0059813,57.3934579 L31.9704673,57.3927103 C31.9663551,57.3923364 31.9618692,57.3919626 31.957757,57.3919626 L31.8581308,57.3861682 C31.8545794,57.3857944 31.8508411,57.3854206 31.846729,57.384486 L31.6751402,57.3639252 C31.6700935,57.3631776 31.6654206,57.3618692 31.6603738,57.3611215 L31.3171963,57.2809346 C31.3168224,57.2809346 31.3160748,57.2805607 31.315514,57.2805607 L31.1198131,57.2097196 L30.7452336,57.0188785 L30.4005607,56.7594393 L20.7874766,47.1515888 C19.8158879,46.1796262 19.8158879,44.5973832 20.7874766,43.6254206 C21.2547664,43.1581308 21.8809346,42.9007477 22.5508411,42.9007477 C23.2201869,42.9007477 23.8463551,43.1581308 24.3138318,43.6250467 L30.6588785,49.9708411 C31.0327103,50.3450467 31.5398131,50.5549533 32.0684112,50.5549533 C32.5970093,50.5549533 33.1041121,50.3450467 33.4785047,49.971215 L55.6878505,27.7624299 C56.1551402,27.2951402 56.7813084,27.037757 57.4502804,27.037757 C58.1196262,27.037757 58.7454206,27.2951402 59.213271,27.7628037 C60.1846729,28.7345794 60.1850467,30.3160748 59.2134579,31.2880374 Z"/>
  </g>
</svg>
